HIERARCHY
ROOT Hips
{
 OFFSET 0.000000 0.000000 0.000000
 CHANNELS 6 Xposition Yposition Zposition Yrotation Xrotation Zrotation
 JOINT Chest
 {
  OFFSET 0.000000 9.585900 0.002600
  CHANNELS 3 Yrotation Xrotation Zrotation
  JOINT Chest2
  {
   OFFSET 0.000000 9.601200 -0.005300
   CHANNELS 3 Yrotation Xrotation Zrotation
   JOINT Chest3
   {
    OFFSET 0.000000 9.561800 0.000000
    CHANNELS 3 Yrotation Xrotation Zrotation
    JOINT Chest4
    {
     OFFSET 0.000000 9.552100 0.000000
     CHANNELS 3 Yrotation Xrotation Zrotation
     JOINT Neck
     {
      OFFSET 0.000000 14.453000 0.000000
      CHANNELS 3 Yrotation Xrotation Zrotation
      JOINT Head
      {
       OFFSET 0.000000 8.936500 -0.011300
       CHANNELS 3 Yrotation Xrotation Zrotation
       End Site
       {
        OFFSET 0.000000 17.073600 -0.006000
       }
      }
     }
     JOINT RightCollar
     {
      OFFSET -2.921100 9.558500 0.000000
      CHANNELS 3 Yrotation Xrotation Zrotation
      JOINT RightShoulder
      {
       OFFSET -13.519700 0.000000 0.000000
       CHANNELS 3 Yrotation Xrotation Zrotation
       JOINT RightElbow
       {
        OFFSET 0.000000 -29.696600 0.000000
        CHANNELS 3 Yrotation Xrotation Zrotation
        JOINT RightWrist
        {
         OFFSET 0.000000 -24.004700 0.000000
         CHANNELS 3 Yrotation Xrotation Zrotation
         End Site
         {
          OFFSET 0.000000 -17.728500 0.000000
         }
        }
       }
      }
     }
     JOINT LeftCollar
     {
      OFFSET 2.921100 9.558500 0.000000
      CHANNELS 3 Yrotation Xrotation Zrotation
      JOINT LeftShoulder
      {
       OFFSET 13.519700 0.000000 0.000000
       CHANNELS 3 Yrotation Xrotation Zrotation
       JOINT LeftElbow
       {
        OFFSET 0.000000 -29.696600 0.000000
        CHANNELS 3 Yrotation Xrotation Zrotation
        JOINT LeftWrist
        {
         OFFSET 0.000000 -24.004700 0.000000
         CHANNELS 3 Yrotation Xrotation Zrotation
         End Site
         {
          OFFSET 0.000000 -17.728500 0.000000
         }
        }
       }
      }
     }
    }
   }
  }
 }
 JOINT RightHip
 {
  OFFSET -7.771700 -0.012900 -0.001300
  CHANNELS 3 Yrotation Xrotation Zrotation
  JOINT RightKnee
  {
   OFFSET 0.000000 -40.869800 0.001200
   CHANNELS 3 Yrotation Xrotation Zrotation
   JOINT RightAnkle
   {
    OFFSET 0.000000 -39.717900 0.002100
    CHANNELS 3 Yrotation Xrotation Zrotation
    JOINT RightToe
    {
     OFFSET 0.000000 -4.965400 11.033500
     CHANNELS 3 Yrotation Xrotation Zrotation
     End Site
     {
      OFFSET 0.000000 -1.423100 5.872300
     }
    }
   }
  }
 }
 JOINT LeftHip
 {
  OFFSET 7.771700 -0.012900 -0.001300
  CHANNELS 3 Yrotation Xrotation Zrotation
  JOINT LeftKnee
  {
   OFFSET 0.000000 -40.869800 0.001200
   CHANNELS 3 Yrotation Xrotation Zrotation
   JOINT LeftAnkle
   {
    OFFSET 0.000000 -39.717900 0.002100
    CHANNELS 3 Yrotation Xrotation Zrotation
    JOINT LeftToe
    {
     OFFSET 0.000000 -4.965400 11.033500
     CHANNELS 3 Yrotation Xrotation Zrotation
     End Site
     {
      OFFSET 0.000000 -1.423100 5.872300
     }
    }
   }
  }
 }
}
MOTION
Frames: 14
Frame Time: 0.008333
1.590720 52.552863 36.319976 171.716469 -37.736793 -1.525506 3.214530 19.863543 1.486775 0.386034 2.480919 0.300776 0.650723 4.057185 0.493659 2.967936 16.999754 2.481084 1.882515 15.156261 0.303245 3.465723 -7.677335 -0.216946 -5.527520 -2.286187 -2.840208 -2.438533 0.807669 4.973880 -97.205975 -85.298840 111.898132 -0.758750 -2.873930 -8.775766 -4.441443 0.016911 0.201217 9.759870 -1.425426 1.572915 174.421791 -73.227695 170.500284 -7.524499 -5.470410 12.774820 -3.677855 -43.753950 1.908647 -153.804321 87.779156 -150.100765 -1.865726 -10.265027 -1.324828 0.060570 -0.225427 0.009686 -0.555079 -39.721418 5.017889 68.443024 82.669908 58.113372 -5.518819 -12.315035 9.325677 0.612066 1.837861 0.274909
1.597324 52.545259 36.323921 171.701094 -37.738378 -1.519258 3.203654 19.876179 1.494190 0.402624 2.474023 0.292085 0.603023 4.090128 0.524559 2.975738 16.992227 2.469210 1.920820 15.157153 0.301888 3.542414 -7.673178 -0.229428 -5.495199 -2.316723 -2.875255 -2.434147 0.802446 4.955206 -97.000467 -85.300589 111.713888 -0.748777 -2.842333 -8.719528 -4.463150 -0.030384 0.205270 9.750439 -1.548214 1.608888 175.542300 -72.713847 169.359482 -7.559008 -5.886321 13.038690 -3.667216 -43.754264 1.897261 -154.120168 87.787527 -150.390358 -1.853209 -10.256097 -1.347163 0.062878 -0.223655 0.013080 -0.558449 -39.715540 5.030256 68.389366 82.665733 58.056638 -5.516401 -12.315999 9.318423 0.607383 1.843350 0.274518
1.600493 52.537943 36.327405 171.700424 -37.739489 -1.512318 3.176012 19.890172 1.489990 0.401857 2.473977 0.293851 0.598423 4.097342 0.525850 2.933207 17.019626 2.493567 1.980767 15.136300 0.265405 3.625731 -7.665321 -0.232023 -5.439487 -2.363793 -2.924348 -2.427427 0.786730 4.920641 -96.685286 -85.285447 111.423974 -0.755100 -2.825807 -8.673828 -4.455255 -0.093712 0.188921 9.729333 -1.679456 1.647891 176.704334 -72.172180 168.205170 -7.603314 -6.322481 13.316134 -3.665702 -43.754179 1.874310 -154.625778 87.794826 -150.878294 -1.842987 -10.252355 -1.364445 0.056564 -0.224089 0.010106 -0.564426 -39.710375 5.028201 68.292675 82.666052 57.955652 -5.513079 -12.313094 9.315368 0.614807 1.847487 0.274060
1.602915 52.530227 36.331777 171.696486 -37.733287 -1.510660 3.151552 19.897298 1.492329 0.373721 2.492157 0.307592 0.620563 4.086272 0.513393 2.910369 17.035232 2.504268 2.032245 15.129931 0.258829 3.709038 -7.664672 -0.243040 -5.395273 -2.394829 -2.952876 -2.429846 0.772492 4.891671 -96.521973 -85.267568 111.276115 -0.765596 -2.812081 -8.625925 -4.436676 -0.135522 0.169133 9.661983 -1.827799 1.713408 177.889865 -71.598454 167.056663 -7.661594 -6.764732 13.611672 -3.667597 -43.761037 1.866504 -154.799192 87.801684 -151.036422 -1.835423 -10.249497 -1.381672 0.056159 -0.221685 0.011939 -0.567550 -39.714515 5.031397 68.196041 82.668321 57.856997 -5.499126 -12.310694 9.313432 0.614339 1.850139 0.273838
1.604305 52.521637 36.337478 171.693195 -37.715596 -1.513985 3.127740 19.892332 1.499632 0.385474 2.487404 0.301864 0.604433 4.098229 0.522447 2.896654 17.044358 2.508525 2.081273 15.134862 0.271742 3.790353 -7.670413 -0.262970 -5.369466 -2.401411 -2.965079 -2.426768 0.737976 4.860584 -96.419357 -85.252613 111.185633 -0.778779 -2.807955 -8.589163 -4.470402 -0.171935 0.189152 9.626365 -1.973079 1.753701 179.063525 -70.997580 165.937711 -7.725031 -7.206868 13.931548 -3.676224 -43.779623 1.863081 -154.703696 87.802485 -150.923392 -1.816907 -10.245731 -1.402079 0.058452 -0.219675 0.012473 -0.574653 -39.731153 5.038749 68.081834 82.669171 57.749398 -5.503694 -12.309776 9.300186 0.632025 1.860713 0.281178
1.604388 52.515230 36.340273 171.680555 -37.717330 -1.508646 3.110188 19.908180 1.503711 0.399433 2.480958 0.298199 0.585723 4.112557 0.529537 2.903415 17.038178 2.501570 2.111072 15.147984 0.293378 3.827904 -7.683243 -0.287627 -5.355844 -2.408066 -2.975896 -2.431358 0.714947 4.850854 -96.319044 -85.246957 111.094781 -0.781449 -2.817846 -8.569502 -4.526241 -0.189733 0.226497 9.586036 -2.125663 1.796830 -179.818062 -70.379239 164.882339 -7.784242 -7.659483 14.279227 -3.702227 -43.775603 1.860158 -155.044229 87.811849 -151.258641 -1.794882 -10.246167 -1.430569 0.053321 -0.216760 0.010549 -0.575761 -39.728160 5.042651 68.065992 82.662392 57.730120 -5.500586 -12.302339 9.298096 0.629941 1.855864 0.279478
1.604028 52.508458 36.343391 171.668994 -37.714538 -1.506372 3.090219 19.922121 1.508435 0.399382 2.480522 0.299637 0.579865 4.121469 0.530443 2.877044 17.056368 2.509837 2.165832 15.138688 0.287519 3.869344 -7.697842 -0.313047 -5.305335 -2.441329 -3.008383 -2.422331 0.701185 4.848471 -96.333538 -85.250306 111.105269 -0.761344 -2.848074 -8.569893 -4.531864 -0.228767 0.228181 9.523531 -2.288947 1.855443 -178.812172 -69.753566 163.942654 -7.845014 -8.141469 14.654781 -3.714986 -43.778456 1.869661 -155.080413 87.815460 -151.297146 -1.788344 -10.244129 -1.438905 0.048988 -0.214419 0.011282 -0.575365 -39.728883 5.048861 68.032975 82.655352 57.695786 -5.501694 -12.299354 9.293191 0.630907 1.853174 0.282961
1.603195 52.500155 36.348083 171.659751 -37.697070 -1.506477 3.083005 19.913412 1.513452 0.358310 2.508476 0.314046 0.599296 4.110056 0.522220 2.847402 17.076864 2.516032 2.223418 15.127891 0.282291 3.957109 -7.703194 -0.324430 -5.275080 -2.439805 -3.018148 -2.392225 0.650784 4.825775 -96.654256 -85.261170 111.423021 -0.734706 -2.872320 -8.588325 -4.535171 -0.266879 0.226578 9.462240 -2.458832 1.919208 -177.946715 -69.124966 163.138897 -7.909021 -8.661252 15.047832 -3.732071 -43.797519 1.884581 -155.063784 87.818254 -151.284517 -1.785578 -10.243164 -1.449152 0.047829 -0.210219 0.014959 -0.574321 -39.746248 5.054699 68.001794 82.643070 57.677206 -5.541001 -12.294183 9.270009 0.665945 1.859916 0.300045
1.604257 52.494278 36.349264 171.636327 -37.705305 -1.506650 3.090876 19.929593 1.529762 0.365278 2.504980 0.311136 0.572490 4.127051 0.532236 2.828987 17.088625 2.517414 2.273689 15.126349 0.287180 4.120122 -7.688013 -0.313488 -5.240730 -2.451741 -3.033664 -2.375373 0.627531 4.816061 -97.128190 -85.285686 111.887161 -0.703537 -2.898926 -8.612619 -4.551385 -0.291598 0.229235 9.408592 -2.634108 1.985984 -177.194510 -68.491301 162.445921 -7.964648 -9.210342 15.443946 -3.739280 -43.787938 1.910512 -154.763058 87.817300 -150.986920 -1.777336 -10.243200 -1.456067 0.047036 -0.207748 0.017494 -0.560820 -39.737254 5.066003 68.020951 82.635623 57.706728 -5.547959 -12.293718 9.263369 0.671092 1.857490 0.301996
1.605535 52.488348 36.349649 171.620346 -37.715881 -1.511344 3.079662 19.951885 1.545848 0.362859 2.508557 0.311881 0.565374 4.130556 0.532640 2.809964 17.100218 2.520024 2.320061 15.114131 0.270652 4.244900 -7.669616 -0.292907 -5.212255 -2.450186 -3.036817 -2.342392 0.593954 4.798633 -98.360260 -85.362943 113.082808 -0.722314 -2.894458 -8.627883 -4.567268 -0.311068 0.227470 9.360303 -2.817020 2.054073 -176.515462 -67.859150 161.832397 -8.006531 -9.783992 15.843193 -3.743673 -43.774769 1.927890 -154.585767 87.815184 -150.804107 -1.769477 -10.246938 -1.467408 0.047857 -0.204500 0.020729 -0.558613 -39.726279 5.082672 68.036891 82.632913 57.725123 -5.545942 -12.291779 9.260901 0.668181 1.853151 0.302004
1.605998 52.482070 36.349309 171.609619 -37.726649 -1.512553 3.058335 19.974670 1.551027 0.360571 2.512128 0.312796 0.559387 4.130030 0.536465 2.787131 17.111261 2.523159 2.370909 15.107126 0.251104 4.351353 -7.652087 -0.276599 -5.183197 -2.432660 -3.030648 -2.310309 0.550633 4.770400 -99.404328 -85.426527 114.093260 -0.716830 -2.904457 -8.639532 -4.581250 -0.325399 0.218924 9.316296 -3.007928 2.123161 -175.896616 -67.236440 161.283627 -8.039745 -10.380359 16.258448 -3.760075 -43.762957 1.953672 -154.490690 87.813818 -150.722357 -1.772266 -10.252912 -1.472478 0.048357 -0.203272 0.025255 -0.549861 -39.717359 5.084536 68.068637 82.628826 57.764821 -5.543535 -12.285415 9.259559 0.662905 1.844801 0.299409
1.605145 52.475205 36.348506 171.601780 -37.735011 -1.505889 2.997025 19.994027 1.548718 0.388162 2.510772 0.301830 0.552906 4.133303 0.539576 2.791828 17.112505 2.513892 2.407381 15.121678 0.277683 4.460791 -7.632063 -0.280249 -5.172617 -2.405632 -3.010581 -2.301860 0.514990 4.747341 -100.292055 -85.472206 114.965352 -0.696746 -2.916180 -8.645879 -4.620918 -0.327261 0.222574 9.273175 -3.201073 2.197246 -175.362495 -66.624367 160.812435 -8.075128 -10.996831 16.704463 -3.760216 -43.758657 1.963580 -154.398290 87.802788 -150.642667 -1.776230 -10.253058 -1.468043 0.050275 -0.206763 0.027144 -0.525918 -39.713917 5.061095 68.151031 82.612499 57.861012 -5.528305 -12.273386 9.266182 0.636877 1.829687 0.286583
1.604685 52.467814 36.347715 171.599191 -37.739745 -1.503424 2.963028 20.003097 1.549178 0.348659 2.519646 0.316019 0.579395 4.129361 0.526463 2.744738 17.125029 2.522106 2.494169 15.152812 0.312297 4.575343 -7.614308 -0.320962 -5.107067 -2.385735 -3.021288 -2.326940 0.493870 4.745166 -101.316369 -85.516706 116.009290 -0.683545 -2.921354 -8.645715 -4.572345 -0.342595 0.178316 9.200616 -3.391943 2.287763 -174.940950 -66.031611 160.437426 -8.123425 -11.647352 17.185509 -3.758735 -43.757420 1.966208 -154.406572 87.797863 -150.654007 -1.777168 -10.256536 -1.466383 0.050604 -0.207314 0.027571 -0.516797 -39.710895 5.052808 68.171241 82.608915 57.883587 -5.517292 -12.269697 9.270975 0.629928 1.826859 0.282934
1.604804 52.461014 36.345830 171.596823 -37.750085 -1.502544 2.923846 20.014142 1.548812 0.343773 2.520237 0.317252 0.571372 4.130328 0.528463 2.694754 17.132674 2.532974 2.570186 15.159021 0.263241 4.704602 -7.548746 -0.275126 -5.028703 -2.362908 -3.046547 -2.326274 0.467086 4.723279 -102.005459 -85.511074 116.690895 -0.679718 -2.923754 -8.641979 -4.563192 -0.346742 0.134793 9.188971 -3.584142 2.374158 -174.625190 -65.465473 160.153297 -8.178243 -12.345890 17.682834 -3.753644 -43.751017 1.970304 -154.566926 87.791441 -150.815659 -1.788286 -10.256580 -1.468989 0.052074 -0.212108 0.032193 -0.513019 -39.701100 5.051200 68.185276 82.609954 57.897389 -5.511509 -12.269175 9.274764 0.626233 1.824462 0.280910
